{"title":"The Inbetweeners 2 2014 HDRip x-264-KingStoner","uid":10871624,"size":1292015753,"categoryP":"video","categoryS":"movies","magnet":"?xt=urn:btih:678def4097fdc1ae2634c922cd4406a948e94083&amp;dn=The+Inbetweeners+2+2014+HDRip+x-264-KingStoner&amp;tr=udp%3A%2F%2Ftracker.openbittorrent.com%3A80&amp;tr=udp%3A%2F%2Fopen.demonii.com%3A1337&amp;tr=udp%3A%2F%2Ftracker.coppersurfer.tk%3A6969&amp;tr=udp%3A%2F%2Fexodus.desync.com%3A6969","seeders":4,"leechers":0,"uploader":"xxxlavalxxx","files":-1,"time":1408974542,"description":"[IMG]http://i.imgur.com/ThPqkCe.jpg[/IMG]\n\n &lt;a href=&quot;\nhttp://www.imdb.com/title/tt3097204/&quot; rel=&quot;nofollow&quot; target=&quot;_NEW&quot;&gt;\nhttp://www.imdb.com/title/tt3097204/&lt;/a&gt;\n\n\nNeil, Will and Simon receive an invite from Jay to join him in Australia whilst on his gap year, who promises them it's ''the sex capital of the world''. With their lives now rather dull compared to their hedonistic school days and legendary lads holiday, it's an offer they can't refuse. Once again, they put growing up temporarily on-hold, and embark on a backpacking holiday of a lifetime in an awful car, inspired by Peter Andre's 'Mysterious Girl'. Will soon finds himself battling with the lads to do something cultural, whilst they focus their attention on drinking, girls, and annoying fellow travelers.\n\nDirectors: Damon Beesley, Iain Morris\nWriters: Damon Beesley, Iain Morris\nStars: Simon Bird, James Buckley, Blake Harrison \nGenres: Comedy\nCountry: UK\nLanguage: English\n\n\nFormat                                   : MPEG-4\nFormat profile                           : Base Media\nCodec ID                                 : isom\nFile size                                : 1.20 GiB\nDuration                                 : 1h 30mn\nOverall bit rate                         : 1 913 Kbps\nWriting application                      : Lavf54.63.104 &lt;a href=&quot;\nhttp://www.imdb.com/title/tt3097204/&quot; rel=&quot;nofollow&quot; target=&quot;_NEW&quot;&gt;\nhttp://www.imdb.com/title/tt3097204/&lt;/a&gt;\nVideo\nID                                       : 1\nFormat                                   : AVC\nFormat/Info                              : Advanced Video Codec\nFormat profile                           : &lt;a class=&quot;__cf_email__&quot; href=&quot;/cdn-cgi/l/email-protection&quot; data-cfemail=&quot;7830111f1038344b5648&quot;&gt;[email&amp;#160;protected]&lt;/a&gt;&lt;script cf-hash='f9e31' type=&quot;text/javascript&quot;&gt;\n/* &lt;![CDATA[ */!function(){try{var t=&quot;currentScript&quot;in document?document.currentScript:function(){for(var t=document.getElementsByTagName(&quot;script&quot;),e=t.length;e--;)if(t[e].getAttribute(&quot;cf-hash&quot;))return t[e]}();if(t&amp;&amp;t.previousSibling){var e,r,n,i,c=t.previousSibling,a=c.getAttribute(&quot;data-cfemail&quot;);if(a){for(e=&quot;&quot;,r=parseInt(a.substr(0,2),16),n=2;a.length-n;n+=2)i=parseInt(a.substr(n,2),16)^r,e+=String.fromCharCode(i);e=document.createTextNode(e),c.parentNode.replaceChild(e,c)}}}catch(u){}}();/* ]]&gt; */&lt;/script&gt;\nFormat settings, CABAC                   : Yes\nFormat settings, ReFrames                : 4 frames\nCodec ID                                 : avc1\nCodec ID/Info                            : Advanced Video Coding\nDuration                                 : 1h 30mn\nBit rate                                 : 1 800 Kbps\nWidth                                    : 720 pixels\nHeight                                   : 404 pixels\nDisplay aspect ratio                     : 16:9\nFrame rate mode                          : Constant\nFrame rate                               : 25.000 fps\nColor space                              : YUV\nChroma subsampling                       : 4:2:0\nBit depth                                : 8 bits\nScan type                                : Progressive\nBits/(Pixel*Frame)                       : 0.248\nStream size                              : 1.12 GiB (93%)\nWriting library                          : x264 core 123 r2189 35cf912\nAudio\nID                                       : 2\nFormat                                   : AAC\nFormat/Info                              : Advanced Audio Codec\nFormat profile                           : LC\nCodec ID                                 : 40\nDuration                                 : 1h 30mn\nBit rate mode                            : Constant\nBit rate                                 : 128 Kbps\nChannel(s)                               : 2 channels\nChannel positions                        : Front: L R\nSampling rate                            : 48.0 KHz\nCompression mode                         : Lossy\nStream size                              : 82.4 MiB (7%)\nLanguage                                 : unk\n\n\nscreens\n &lt;a href=&quot;\nhttp://i.imgur.com/PSnRC8s.jpg&quot; rel=&quot;nofollow&quot; target=&quot;_NEW&quot;&gt;\nhttp://i.imgur.com/PSnRC8s.jpg&lt;/a&gt; &lt;a href=&quot;\nhttp://i.imgur.com/95joTNI.jpg&quot; rel=&quot;nofollow&quot; target=&quot;_NEW&quot;&gt;\nhttp://i.imgur.com/95joTNI.jpg&lt;/a&gt; &lt;a href=&quot;\nhttp://i.imgur.com/TQNVQAR.jpg&quot; rel=&quot;nofollow&quot; target=&quot;_NEW&quot;&gt;\nhttp://i.imgur.com/TQNVQAR.jpg&lt;/a&gt;","torrent":{"xt":"urn:btih:678def4097fdc1ae2634c922cd4406a948e94083","amp;dn":"The+Inbetweeners+2+2014+HDRip+x-264-KingStoner","amp;tr":["udp%3A%2F%2Ftracker.openbittorrent.com%3A80","udp%3A%2F%2Fopen.demonii.com%3A1337","udp%3A%2F%2Ftracker.coppersurfer.tk%3A6969","udp%3A%2F%2Fexodus.desync.com%3A6969"],"infoHash":"678def4097fdc1ae2634c922cd4406a948e94083","infoHashBuffer":{"type":"Buffer","data":[103,141,239,64,151,253,193,174,38,52,201,34,205,68,6,169,72,233,64,131]},"announce":[],"urlList":[]}}